<?xml version="1.0" standalone="no"?>
<!DOCTYPE svg PUBLIC "-//W3C//DTD SVG 20010904//EN"
 "http://www.w3.org/TR/2001/REC-SVG-20010904/DTD/svg10.dtd">
<svg version="1.0" xmlns="http://www.w3.org/2000/svg"
 width="279.000000pt" height="279.000000pt" viewBox="0 0 279.000000 279.000000"
 preserveAspectRatio="xMidYMid meet">
<metadata>
Created by potrace 1.11, written by Peter Selinger 2001-2013
</metadata>
<g transform="translate(0.000000,279.000000) scale(0.100000,-0.100000)"
fill="#000000" stroke="none">
<path d="M1045 2635 c-186 -25 -285 -55 -445 -135 -132 -66 -185 -104 -290
-206 -142 -137 -223 -268 -280 -450 -40 -128 -37 -446 5 -609 9 -33 33 -95 54
-138 21 -42 35 -77 30 -77 -17 0 -81 -65 -100 -101 -15 -31 -19 -59 -19 -141
0 -175 22 -471 37 -500 24 -48 75 -98 124 -124 60 -30 74 -30 652 -4 425 19
438 20 486 44 45 23 94 69 103 98 3 8 17 -1 36 -23 18 -20 56 -47 84 -59 60
-26 55 -26 742 6 271 12 357 19 380 31 59 30 96 65 121 113 30 60 32 127 10
422 -11 156 -18 205 -34 236 -18 36 -76 95 -115 117 -17 9 -17 13 -2 50 47
119 62 407 31 584 -44 253 -226 519 -457 668 -142 92 -348 168 -533 198 -113
19 -478 18 -620 0z m590 -80 c184 -30 378 -101 516 -190 101 -65 242 -210 302
-311 102 -172 137 -307 137 -525 0 -157 -19 -257 -71 -368 -21 -46 -39 -85
-39 -87 0 -2 20 -4 44 -4 75 0 141 -60 156 -141 5 -24 14 -142 21 -262 13
-215 13 -218 -9 -261 -14 -30 -35 -53 -64 -70 -42 -24 -51 -25 -393 -40 -689
-31 -634 -31 -685 -4 -31 16 -53 37 -70 68 -25 45 -25 45 -22 285 3 238 3 241
30 295 24 49 35 59 92 88 200 103 254 197 254 442 0 117 -3 147 -26 222 -59
196 -155 305 -322 367 -123 46 -267 36 -388 -25 -72 -36 -169 -137 -206 -214
-64 -131 -75 -306 -32 -475 48 -188 115 -267 280 -330 72 -28 135 -83 145
-127 26 -119 65 -382 65 -440 0 -91 -26 -142 -87 -176 -40 -22 -61 -23 -528
-44 l-486 -21 -44 21 c-25 12 -57 39 -73 61 -28 38 -29 45 -40 233 -18 285
-17 328 11 369 26 39 91 79 129 79 l27 0 -46 78 c-101 170 -125 267 -127 512
-1 156 1 183 22 247 56 178 131 300 262 427 95 91 151 131 270 191 149 75 252
106 435 130 141 18 448 18 560 0z m-255 -555 c121 -23 243 -106 293 -199 97
-177 109 -443 28 -575 -23 -37 -83 -82 -161 -121 -30 -15 -66 -37 -78 -49 -31
-27 -71 -107 -82 -160 -6 -32 -8 -35 -9 -13 -3 77 -83 164 -192 208 -41 16
-91 41 -111 55 -72 50 -116 143 -144 307 -14 78 -13 96 1 180 20 116 54 188
122 254 62 61 94 80 178 104 72 21 87 22 155 9z"/>
<path d="M1225 2480 c-261 -15 -465 -76 -649 -195 -78 -50 -209 -176 -258
-248 -51 -74 -103 -185 -124 -262 -36 -135 -27 -376 20 -516 45 -133 158 -299
261 -383 26 -22 84 -61 128 -88 l80 -48 -80 0 c-107 0 -143 8 -153 34 -4 12
-14 36 -20 54 -7 18 -25 39 -41 47 -37 19 -132 19 -169 0 -56 -29 -59 -46 -43
-290 15 -236 20 -256 72 -278 37 -16 934 23 968 42 49 26 54 83 24 257 -11 60
-23 137 -27 171 -8 76 -33 118 -81 140 -135 58 -172 80 -225 135 -70 71 -100
128 -135 256 -23 83 -27 116 -27 227 1 200 35 310 133 431 116 142 254 208
441 208 161 0 263 -37 383 -139 85 -71 138 -153 175 -267 66 -202 66 -461 1
-590 -43 -85 -142 -175 -248 -226 -38 -18 -57 -34 -66 -56 -8 -20 -15 -111
-19 -246 -6 -203 -5 -217 13 -247 15 -23 30 -34 58 -39 21 -4 239 2 484 13
484 23 502 25 515 80 12 48 -16 455 -33 484 -21 36 -72 52 -136 44 -97 -12
-114 -26 -133 -108 -9 -41 -41 -56 -130 -63 l-79 -7 63 48 c114 86 200 196
265 341 53 117 69 197 68 347 -1 188 -32 302 -125 457 -205 342 -610 512
-1151 480z"/>
</g>
</svg>
